<svg xmlns="http://www.w3.org/2000/svg" width="112" height="128" fill="none" viewBox="0 0 112 128"><path fill="url(#paint0_linear_24_2518)" stroke="url(#paint1_linear_24_2518)" d="M20.3771 0.894674L20.3772 0.894642C20.4833 0.868541 20.7208 0.836016 21.1089 0.803051C21.4857 0.771056 21.9754 0.740785 22.566 0.712689C23.7467 0.656524 25.3173 0.609663 27.1678 0.574353C30.868 0.503749 35.6762 0.479531 40.698 0.518663C49.5236 0.587762 54.1217 0.636878 57.1896 0.84947C60.2313 1.06024 61.7533 1.43026 64.4344 2.15478L64.5649 1.67209L64.4345 2.15479C71.7791 4.13899 77.1936 6.46598 82.1158 9.73827L82.3926 9.32189L82.1158 9.73829C83.2336 10.4813 84.1081 11.1123 84.7716 11.6724C85.4379 12.2348 85.8682 12.7066 86.1203 13.1259C86.365 13.533 86.4388 13.8847 86.3998 14.2332C86.3591 14.5967 86.1902 15.0061 85.8596 15.5107C85.3703 16.2573 84.539 16.7066 83.6482 16.7066H68.352C51.6125 16.7066 46.5253 17.0947 42.0792 18.8083L42.079 18.8084C41.8409 18.9003 41.5984 18.9916 41.3531 19.084C39.8321 19.6569 38.2033 20.2704 36.8545 21.3029C36.5325 21.5494 36.1856 21.7975 35.8213 22.033C27.3051 27.5373 22.6438 39.0422 24.785 49.2176C27.4813 62.0306 36.6544 70.2622 49.7305 71.6088C53.649 72.0124 56.3264 72.7106 58.237 73.9143C60.1239 75.103 61.3147 76.8184 62.185 79.3842C64.1739 85.2477 60.535 92.2158 54.6522 93.8494L54.786 94.3312L54.6522 93.8494C54.3387 93.9365 53.6259 94.0241 52.5554 94.1013C51.5037 94.1771 50.1527 94.2402 48.5968 94.2905C45.4858 94.391 41.5702 94.4396 37.621 94.4366C33.6718 94.4337 29.693 94.3792 26.4558 94.274C23.196 94.1681 20.742 94.0116 19.8024 93.8156L19.7156 94.2317L19.8024 93.8156C10.6058 91.8975 3.79067 85.4539 1.45257 76.4759L0.968824 76.6019L1.45256 76.4759C1.30399 75.9055 1.16385 74.6767 1.04177 72.9018C0.92089 71.1444 0.820065 68.8953 0.739483 66.3157C0.578343 61.1573 0.49857 54.6914 0.500019 48.2231C0.501469 41.7549 0.58414 35.2884 0.747597 30.1289C0.829338 27.5488 0.931176 25.299 1.05285 23.5408C1.17573 21.7652 1.31643 20.5352 1.46532 19.9636L1.46533 19.9636C3.88911 10.657 11.395 3.10157 20.3771 0.894674ZM46.1026 34.0826L45.8693 33.6404L46.1027 34.0826C47.7102 33.234 49.5005 32.7904 51.3182 32.7904H74.1697C84.4556 32.7904 90.9781 32.8306 95.1147 32.9503C97.1838 33.0102 98.6462 33.0897 99.6799 33.1928C100.727 33.2972 101.287 33.422 101.584 33.549C105.647 35.2876 108.31 40.1189 110.435 50.4436C111.243 54.3673 111.585 59.7931 111.482 65.1997C111.379 70.6071 110.831 75.9514 109.877 79.714L109.877 79.714C107.666 88.4437 101.641 99.4687 95.1107 106.724C85.5941 117.296 70.3408 125.048 55.4347 126.875C52.5209 127.232 41.0788 127.506 29.0994 127.5C19.3952 127.495 14.0655 127.469 10.8885 127.322C7.72039 127.176 6.75618 126.91 5.75277 126.454C-0.587523 123.574 -1.00947 115.061 4.98051 111.695C5.49438 111.406 5.89054 111.205 6.54355 111.049C7.21493 110.889 8.17067 110.774 9.79669 110.696C13.0479 110.539 18.8574 110.53 30.1649 110.53C37.5741 110.53 43.6611 110.472 48.1363 110.362C50.3736 110.307 52.2111 110.239 53.611 110.16C54.9974 110.08 55.9886 109.988 56.51 109.876L56.5101 109.876C59.8748 109.154 63.5105 107.644 66.1806 105.853C66.4898 105.645 66.8121 105.448 67.1452 105.243L67.1556 105.237C67.4825 105.036 67.8197 104.83 68.1474 104.61C68.8096 104.168 69.4621 103.656 69.9776 102.983C70.3763 102.463 70.826 101.904 71.2827 101.39C76.9596 95.8072 79.7348 87.2955 78.4956 79.291C77.2871 71.4827 73.7285 65.6834 67.3493 61.1309L67.0589 61.5379L67.3493 61.1309C62.667 57.7895 58.4625 56.2914 51.9897 55.6352C49.9547 55.429 48.6409 55.2295 47.5993 54.9203C46.5741 54.616 45.7968 54.2006 44.8473 53.5335C43.0245 52.2521 41.8181 50.945 41.0856 49.4181C40.3525 47.8899 40.0714 46.0942 40.1809 43.797C40.2569 42.2032 40.3777 41.1735 40.6398 40.3029C40.8988 39.4429 41.3046 38.7093 41.9983 37.7243C42.9025 36.441 44.7688 34.7864 46.1026 34.0826Z"/><defs><linearGradient id="paint0_linear_24_2518" x1="96.011" x2="4.451" y1="122.378" y2=".155" gradientUnits="userSpaceOnUse"><stop stop-color="#0ACCAE"/><stop offset="1" stop-color="#0076BE"/></linearGradient><linearGradient id="paint1_linear_24_2518" x1="0" x2="111.996" y1="0" y2="127.566" gradientUnits="userSpaceOnUse"><stop stop-color="#0076BE"/><stop offset="1" stop-color="#0ACCAE"/></linearGradient></defs></svg>